# xmcd
#
# Track frame offsets: 
#        150
#        23752
#        46334
#        70770
#        87889
#        103984
#        118032
#        143771
#        159740
#        178936
#        196204
#        214535
#        233409
#
# Disc length: 3363 seconds
#
# Revision: 1
# Processed by: cddbd v1.5.2PL0 Copyright (c) Steve Scherf et al.
# Submitted via: ExactAudioCopy v0.99pb3
#
DISCID=ad0d210d
DTITLE=Essence Of Mind - Insurrection
DYEAR=2008
DGENRE=Industrial
TTITLE0=Here to Play
TTITLE1=Piss Artist
TTITLE2=Original Poser
TTITLE3=My Time
TTITLE4=Crime of Life
TTITLE5=Friction
TTITLE6=Fake
TTITLE7=Wasted
TTITLE8=The Game
TTITLE9=Queued up
TTITLE10=Deadheroes
TTITLE11=Flayed Principle
TTITLE12=Push It Back
EXTD=
EXTT0=
EXTT1=
EXTT2=
EXTT3=
EXTT4=
EXTT5=
EXTT6=
EXTT7=
EXTT8=
EXTT9=
EXTT10=
EXTT11=
EXTT12=
PLAYORDER=
